<svg version="1.1" viewBox="0.0 0.0 514.2020997375328 292.21259842519686" fill="none" stroke="none" stroke-linecap="square" stroke-miterlimit="10" xmlns:xlink="http://www.w3.org/1999/xlink" xmlns="http://www.w3.org/2000/svg"><clipPath id="p.0"><path d="m0 0l514.2021 0l0 292.2126l-514.2021 0l0 -292.2126z" clip-rule="nonzero"/></clipPath><g clip-path="url(#p.0)"><path fill="#000000" fill-opacity="0.0" d="m0 0l514.2021 0l0 292.2126l-514.2021 0z" fill-rule="evenodd"/><path fill="#cfe2f3" d="m312.08203 227.38606l0 0c0 -27.092392 21.969757 -49.055115 49.07086 -49.055115l0 0c13.014404 0 25.495758 5.168289 34.698334 14.367905c9.202576 9.199631 14.372528 21.676987 14.372528 34.68721l0 0c0 27.092392 -21.969788 49.05513 -49.07086 49.05513l0 0c-27.101105 0 -49.07086 -21.962738 -49.07086 -49.05513z" fill-rule="evenodd"/><path stroke="#000000" stroke-width="1.0" stroke-linejoin="round" stroke-linecap="butt" d="m312.08203 227.38606l0 0c0 -27.092392 21.969757 -49.055115 49.07086 -49.055115l0 0c13.014404 0 25.495758 5.168289 34.698334 14.367905c9.202576 9.199631 14.372528 21.676987 14.372528 34.68721l0 0c0 27.092392 -21.969788 49.05513 -49.07086 49.05513l0 0c-27.101105 0 -49.07086 -21.962738 -49.07086 -49.05513z" fill-rule="evenodd"/><path fill="#000000" fill-opacity="0.0" d="m191.17589 227.38606l120.913376 0" fill-rule="evenodd"/><path stroke="#d9d9d9" stroke-width="8.0" stroke-linejoin="round" stroke-linecap="butt" d="m191.17589 227.38606l120.913376 0" fill-rule="evenodd"/><path fill="#cfe2f3" d="m93.03415 227.38606l0 0c0 -27.092392 21.96978 -49.055115 49.070877 -49.055115l0 0c13.014389 0 25.495758 5.168289 34.698334 14.367905c9.202576 9.199631 14.372528 21.676987 14.372528 34.68721l0 0c0 27.092392 -21.969772 49.05513 -49.07086 49.05513l0 0c-27.101097 0 -49.070877 -21.962738 -49.070877 -49.05513z" fill-rule="evenodd"/><path stroke="#000000" stroke-width="1.0" stroke-linejoin="round" stroke-linecap="butt" d="m93.03415 227.38606l0 0c0 -27.092392 21.96978 -49.055115 49.070877 -49.055115l0 0c13.014389 0 25.495758 5.168289 34.698334 14.367905c9.202576 9.199631 14.372528 21.676987 14.372528 34.68721l0 0c0 27.092392 -21.969772 49.05513 -49.07086 49.05513l0 0c-27.101097 0 -49.070877 -21.962738 -49.070877 -49.05513z" fill-rule="evenodd"/><path fill="#cfe2f3" d="m202.56396 62.818497l0 0c0 -27.092396 21.969772 -49.05512 49.07086 -49.05512l0 0c13.014404 0 25.495789 5.168293 34.698334 14.367912c9.202576 9.199619 14.372528 21.67698 14.372528 34.687206l0 0c0 27.092392 -21.969757 49.055115 -49.07086 49.055115l0 0c-27.10109 0 -49.07086 -21.962723 -49.07086 -49.055115z" fill-rule="evenodd"/><path stroke="#000000" stroke-width="1.0" stroke-linejoin="round" stroke-linecap="butt" d="m202.56396 62.818497l0 0c0 -27.092396 21.969772 -49.05512 49.07086 -49.05512l0 0c13.014404 0 25.495789 5.168293 34.698334 14.367912c9.202576 9.199619 14.372528 21.67698 14.372528 34.687206l0 0c0 27.092392 -21.969757 49.055115 -49.07086 49.055115l0 0c-27.10109 0 -49.07086 -21.962723 -49.07086 -49.055115z" fill-rule="evenodd"/><path fill="#000000" fill-opacity="0.0" d="m333.47223 185.07051l72.8819 0l0 106.29921l-72.8819 0z" fill-rule="evenodd"/><path fill="#000000" d="m358.0816 247.8305l0 -16.984375l-15.4375 -23.109375l6.453125 0l7.890625 12.09375q2.1875 3.390625 4.078125 6.78125q1.8125 -3.140625 4.375 -7.078125l7.765625 -11.796875l6.1875 0l-16.0 23.109375l0 16.984375l-5.3125 0z" fill-rule="nonzero"/><path fill="#000000" fill-opacity="0.0" d="m223.70932 19.17982l74.99213 0l0 87.2756l-74.99213 0z" fill-rule="evenodd"/><path fill="#000000" d="m232.95932 81.93982l15.5 -20.890625l-13.671875 -19.203125l6.3125 0l7.28125 10.28125q2.265625 3.203125 3.21875 4.921875q1.34375 -2.1875 3.171875 -4.5625l8.078125 -10.640625l5.765625 0l-14.078125 18.90625l15.171875 21.1875l-6.5625 0l-10.09375 -14.296875q-0.84375 -1.234375 -1.75 -2.6875q-1.34375 2.1875 -1.90625 3.015625l-10.0625 13.96875l-6.375 0z" fill-rule="nonzero"/><path fill="#000000" fill-opacity="0.0" d="m114.71178 185.07117l67.055115 0l0 84.62991l-67.055115 0z" fill-rule="evenodd"/><path fill="#000000" d="m124.83678 247.83116l0 -4.921875l20.53125 -25.671875q2.1875 -2.734375 4.15625 -4.765625l-22.359375 0l0 -4.734375l28.703125 0l0 4.734375l-22.5 27.8125l-2.4375 2.8125l25.59375 0l0 4.734375l-31.6875 0z" fill-rule="nonzero"/><path fill="#000000" fill-opacity="0.0" d="m166.94174 184.68417l56.377945 -81.38582" fill-rule="evenodd"/><path stroke="#d9d9d9" stroke-width="8.0" stroke-linejoin="round" stroke-linecap="butt" d="m166.94174 184.68417l56.377945 -81.38582" fill-rule="evenodd"/><path fill="#000000" fill-opacity="0.0" d="m333.87402 186.18636l-54.582672 -82.456696" fill-rule="evenodd"/><path stroke="#000000" stroke-width="8.0" stroke-linejoin="round" stroke-linecap="butt" d="m333.87402 186.18636l-28.087738 -42.431473" fill-rule="evenodd"/><path fill="#000000" stroke="#000000" stroke-width="8.0" stroke-linecap="butt" d="m316.80475 136.46114l-31.057922 -22.979317l9.020935 37.566826z" fill-rule="evenodd"/><path fill="#000000" fill-opacity="0.0" d="m171.98425 103.72966l45.417328 0l0 70.55118l-45.417328 0z" fill-rule="evenodd"/><path fill="#000000" d="m192.04675 150.34091q-0.015625 -0.84375 -0.015625 -1.265625q0 -2.484375 0.703125 -4.28125q0.515625 -1.359375 1.65625 -2.75q0.84375 -1.0 3.03125 -2.9375q2.203125 -1.9375 2.859375 -3.078125q0.65625 -1.15625 0.65625 -2.515625q0 -2.453125 -1.921875 -4.3125q-1.921875 -1.8750076 -4.71875 -1.8750076q-2.6875 0 -4.5 1.6875076q-1.796875 1.6875 -2.359375 5.28125l-4.34375 -0.515625q0.59375 -4.8125 3.484375 -7.3593826q2.890625 -2.5625 7.65625 -2.5625q5.03125 0 8.03125 2.75q3.0 2.7343826 3.0 6.6250076q0 2.25 -1.0625 4.15625q-1.046875 1.890625 -4.109375 4.609375q-2.0625 1.828125 -2.703125 2.703125q-0.625 0.859375 -0.9375 1.984375q-0.296875 1.125 -0.34375 3.65625l-4.0625 0zm-0.25 8.46875l0 -4.8125l4.796875 0l0 4.8125l-4.796875 0z" fill-rule="nonzero"/><path fill="#000000" fill-opacity="0.0" d="m231.46457 188.59842l45.417328 0l0 77.5748l-45.417328 0z" fill-rule="evenodd"/><path fill="#000000" d="m251.52707 235.20967q-0.015625 -0.84375 -0.015625 -1.265625q0 -2.484375 0.703125 -4.28125q0.515625 -1.359375 1.65625 -2.75q0.84375 -1.0 3.03125 -2.9375q2.203125 -1.9375 2.859375 -3.078125q0.65625 -1.15625 0.65625 -2.515625q0 -2.453125 -1.921875 -4.3125q-1.921875 -1.875 -4.71875 -1.875q-2.6875 0 -4.5 1.6875q-1.796875 1.6875 -2.359375 5.28125l-4.34375 -0.515625q0.59375 -4.8125 3.484375 -7.359375q2.890625 -2.5625 7.65625 -2.5625q5.03125 0 8.03125 2.75q3.0 2.734375 3.0 6.625q0 2.25 -1.0625 4.15625q-1.046875 1.890625 -4.109375 4.609375q-2.0625 1.828125 -2.703125 2.703125q-0.625 0.859375 -0.9375 1.984375q-0.296875 1.125 -0.34375 3.65625l-4.0625 0zm-0.25 8.46875l0 -4.8125l4.796875 0l0 4.8125l-4.796875 0z" fill-rule="nonzero"/></g></svg>