<svg version="1.1" viewBox="0.0 0.0 514.2020997375328 292.21259842519686" fill="none" stroke="none" stroke-linecap="square" stroke-miterlimit="10" xmlns:xlink="http://www.w3.org/1999/xlink" xmlns="http://www.w3.org/2000/svg"><clipPath id="p.0"><path d="m0 0l514.2021 0l0 292.2126l-514.2021 0l0 -292.2126z" clip-rule="nonzero"/></clipPath><g clip-path="url(#p.0)"><path fill="#000000" fill-opacity="0.0" d="m0 0l514.2021 0l0 292.2126l-514.2021 0z" fill-rule="evenodd"/><path fill="#cfe2f3" d="m312.08203 227.38606l0 0c0 -27.092392 21.969757 -49.055115 49.07086 -49.055115l0 0c13.014404 0 25.495758 5.168289 34.698334 14.367905c9.202576 9.199631 14.372528 21.676987 14.372528 34.68721l0 0c0 27.092392 -21.969788 49.05513 -49.07086 49.05513l0 0c-27.101105 0 -49.07086 -21.962738 -49.07086 -49.05513z" fill-rule="evenodd"/><path stroke="#000000" stroke-width="1.0" stroke-linejoin="round" stroke-linecap="butt" d="m312.08203 227.38606l0 0c0 -27.092392 21.969757 -49.055115 49.07086 -49.055115l0 0c13.014404 0 25.495758 5.168289 34.698334 14.367905c9.202576 9.199631 14.372528 21.676987 14.372528 34.68721l0 0c0 27.092392 -21.969788 49.05513 -49.07086 49.05513l0 0c-27.101105 0 -49.07086 -21.962738 -49.07086 -49.05513z" fill-rule="evenodd"/><path fill="#000000" fill-opacity="0.0" d="m191.17589 227.38606l120.913376 0" fill-rule="evenodd"/><path stroke="#000000" stroke-width="8.0" stroke-linejoin="round" stroke-linecap="butt" d="m239.17589 227.38608l72.91341 0" fill-rule="evenodd"/><path fill="#000000" stroke="#000000" stroke-width="8.0" stroke-linecap="butt" d="m239.17589 214.17221l-36.30478 13.213867l36.30478 13.213852z" fill-rule="evenodd"/><path fill="#cfe2f3" d="m93.03415 227.38606l0 0c0 -27.092392 21.96978 -49.055115 49.070877 -49.055115l0 0c13.014389 0 25.495758 5.168289 34.698334 14.367905c9.202576 9.199631 14.372528 21.676987 14.372528 34.68721l0 0c0 27.092392 -21.969772 49.05513 -49.07086 49.05513l0 0c-27.101097 0 -49.070877 -21.962738 -49.070877 -49.05513z" fill-rule="evenodd"/><path stroke="#000000" stroke-width="1.0" stroke-linejoin="round" stroke-linecap="butt" d="m93.03415 227.38606l0 0c0 -27.092392 21.96978 -49.055115 49.070877 -49.055115l0 0c13.014389 0 25.495758 5.168289 34.698334 14.367905c9.202576 9.199631 14.372528 21.676987 14.372528 34.68721l0 0c0 27.092392 -21.969772 49.05513 -49.07086 49.05513l0 0c-27.101097 0 -49.070877 -21.962738 -49.070877 -49.05513z" fill-rule="evenodd"/><path fill="#cfe2f3" d="m202.56396 62.818497l0 0c0 -27.092396 21.969772 -49.05512 49.07086 -49.05512l0 0c13.014404 0 25.495789 5.168293 34.698334 14.367912c9.202576 9.199619 14.372528 21.67698 14.372528 34.687206l0 0c0 27.092392 -21.969757 49.055115 -49.07086 49.055115l0 0c-27.10109 0 -49.07086 -21.962723 -49.07086 -49.055115z" fill-rule="evenodd"/><path stroke="#000000" stroke-width="1.0" stroke-linejoin="round" stroke-linecap="butt" d="m202.56396 62.818497l0 0c0 -27.092396 21.969772 -49.05512 49.07086 -49.05512l0 0c13.014404 0 25.495789 5.168293 34.698334 14.367912c9.202576 9.199619 14.372528 21.67698 14.372528 34.687206l0 0c0 27.092392 -21.969757 49.055115 -49.07086 49.055115l0 0c-27.10109 0 -49.07086 -21.962723 -49.07086 -49.055115z" fill-rule="evenodd"/><path fill="#000000" fill-opacity="0.0" d="m333.47223 185.07051l72.8819 0l0 106.29921l-72.8819 0z" fill-rule="evenodd"/><path fill="#000000" d="m358.0816 247.8305l0 -16.984375l-15.4375 -23.109375l6.453125 0l7.890625 12.09375q2.1875 3.390625 4.078125 6.78125q1.8125 -3.140625 4.375 -7.078125l7.765625 -11.796875l6.1875 0l-16.0 23.109375l0 16.984375l-5.3125 0z" fill-rule="nonzero"/><path fill="#000000" fill-opacity="0.0" d="m223.70932 19.17982l74.99213 0l0 87.2756l-74.99213 0z" fill-rule="evenodd"/><path fill="#000000" d="m232.95932 81.93982l15.5 -20.890625l-13.671875 -19.203125l6.3125 0l7.28125 10.28125q2.265625 3.203125 3.21875 4.921875q1.34375 -2.1875 3.171875 -4.5625l8.078125 -10.640625l5.765625 0l-14.078125 18.90625l15.171875 21.1875l-6.5625 0l-10.09375 -14.296875q-0.84375 -1.234375 -1.75 -2.6875q-1.34375 2.1875 -1.90625 3.015625l-10.0625 13.96875l-6.375 0z" fill-rule="nonzero"/><path fill="#000000" fill-opacity="0.0" d="m114.71178 185.07117l67.055115 0l0 84.62991l-67.055115 0z" fill-rule="evenodd"/><path fill="#000000" d="m124.83678 247.83116l0 -4.921875l20.53125 -25.671875q2.1875 -2.734375 4.15625 -4.765625l-22.359375 0l0 -4.734375l28.703125 0l0 4.734375l-22.5 27.8125l-2.4375 2.8125l25.59375 0l0 4.734375l-31.6875 0z" fill-rule="nonzero"/></g></svg>