<svg version="1.1" viewBox="0.0 0.0 514.2020997375328 292.21259842519686" fill="none" stroke="none" stroke-linecap="square" stroke-miterlimit="10" xmlns:xlink="http://www.w3.org/1999/xlink" xmlns="http://www.w3.org/2000/svg"><clipPath id="p.0"><path d="m0 0l514.2021 0l0 292.2126l-514.2021 0l0 -292.2126z" clip-rule="nonzero"/></clipPath><g clip-path="url(#p.0)"><path fill="#000000" fill-opacity="0.0" d="m0 0l514.2021 0l0 292.2126l-514.2021 0z" fill-rule="evenodd"/><path fill="#cfe2f3" d="m45.90814 182.78215l0 0c0 -36.085495 29.253078 -65.33858 65.33858 -65.33858l0 0c17.328873 0 33.947998 6.8838654 46.201355 19.137222c12.253357 12.253357 19.137222 28.872482 19.137222 46.201355l0 0c0 36.08551 -29.253082 65.33858 -65.33858 65.33858l0 0c-36.085503 0 -65.33858 -29.253067 -65.33858 -65.33858z" fill-rule="evenodd"/><path stroke="#000000" stroke-width="1.0" stroke-linejoin="round" stroke-linecap="butt" d="m45.90814 182.78215l0 0c0 -36.085495 29.253078 -65.33858 65.33858 -65.33858l0 0c17.328873 0 33.947998 6.8838654 46.201355 19.137222c12.253357 12.253357 19.137222 28.872482 19.137222 46.201355l0 0c0 36.08551 -29.253082 65.33858 -65.33858 65.33858l0 0c-36.085503 0 -65.33858 -29.253067 -65.33858 -65.33858z" fill-rule="evenodd"/><path fill="#cfe2f3" d="m337.61417 182.78215l0 0c0 -36.085495 29.253082 -65.33858 65.33859 -65.33858l0 0c17.328857 0 33.947998 6.8838654 46.201355 19.137222c12.253357 12.253357 19.137238 28.872482 19.137238 46.201355l0 0c0 36.08551 -29.253082 65.33858 -65.33859 65.33858l0 0c-36.08551 0 -65.33859 -29.253067 -65.33859 -65.33858z" fill-rule="evenodd"/><path stroke="#000000" stroke-width="1.0" stroke-linejoin="round" stroke-linecap="butt" d="m337.61417 182.78215l0 0c0 -36.085495 29.253082 -65.33858 65.33859 -65.33858l0 0c17.328857 0 33.947998 6.8838654 46.201355 19.137222c12.253357 12.253357 19.137238 28.872482 19.137238 46.201355l0 0c0 36.08551 -29.253082 65.33858 -65.33859 65.33858l0 0c-36.08551 0 -65.33859 -29.253067 -65.33859 -65.33858z" fill-rule="evenodd"/><path fill="#000000" fill-opacity="0.0" d="m176.5853 182.78215l161.03937 0" fill-rule="evenodd"/><path stroke="#000000" stroke-width="8.0" stroke-linejoin="round" stroke-linecap="butt" stroke-dasharray="8.0,24.0" d="m176.5853 182.78215l161.03937 0" fill-rule="evenodd"/><path fill="#000000" fill-opacity="0.0" d="m84.47507 26.383202l53.543304 0l0 73.35433l-53.543304 0z" fill-rule="evenodd"/><path fill="#000000" d="m109.08444 89.1432l0 -16.984375l-15.4375 -23.109379l6.453125 0l7.890625 12.09375q2.1875 3.3906288 4.078125 6.781254q1.8125 -3.140625 4.375 -7.078129l7.765625 -11.796875l6.1875 0l-16.0 23.109379l0 16.984375l-5.3125 0z" fill-rule="nonzero"/><path fill="#000000" fill-opacity="0.0" d="m373.01575 26.383202l59.874023 0l0 85.19685l-59.874023 0z" fill-rule="evenodd"/><path fill="#000000" d="m383.14075 89.1432l0 -4.921875l20.53125 -25.671879q2.1875 -2.734375 4.15625 -4.765625l-22.359375 0l0 -4.734375l28.703125 0l0 4.734375l-22.5 27.812504l-2.4375 2.8125l25.59375 0l0 4.734375l-31.6875 0z" fill-rule="nonzero"/></g></svg>